ffmpeg started on 2025-05-28 at 22:17:02
Report written to "D:\Convert\FFMetrics\reports\psnr_report-6.txt"
Log level: 32
Command line:
ffmpeg -hide_banner -nostdin -i "G:\\\xc0\xed\xe8\xec\xe5\\\xce\xed\xe3\xee\xe8\xed\xe3\xe8\\!_36_\xce\xf1\xe5\xed\xfc_2024\\JamClub\\\xcc\xe5\xf5\xe0\xed\xe8\xf7\xe5\xf1\xea\xe8\xe5 \xf0\xf3\xea\xe8\\JamClub_Mecha_ude_TV_12_1080p_HEVC.mkv" -i "G:\\\xc0\xed\xe8\xec\xe5\\\xce\xed\xe3\xee\xe8\xed\xe3\xe8\\!_36_\xce\xf1\xe5\xed\xfc_2024\\JamClub\\\xcc\xe5\xf5\xe0\xed\xe8\xf7\xe5\xf1\xea\xe8\xe5 \xf0\xf3\xea\xe8\\JamClub_Mecha_ude_TV_12_1080p.mp4" -lavfi "[0:v]settb=AVTB,setpts=PTS-STARTPTS,format=pix_fmts=yuv420p10,fps=24000/1001,scale=1920:1080:flags=bicubic[main];[1:v]settb=AVTB,setpts=PTS-STARTPTS,format=pix_fmts=yuv420p,fps=24000/1001,scale=1920:1080:flags=bicubic[ref];[main][ref]psnr=eof_action=endall:stats_file='D\\:/Convert/FFMetrics/logs/psnr_logfile-6.txt'" -f null -
Input #0, matroska,webm, from 'G:\Аниме\Онгоинги\!_36_Осень_2024\JamClub\Механические руки\JamClub_Mecha_ude_TV_12_1080p_HEVC.mkv':
  Metadata:
    COMPATIBLE_BRANDS: isomiso2avc1mp41
    MAJOR_BRAND     : isom
    MINOR_VERSION   : 512
    ENCODER         : Lavf61.7.100
  Duration: 00:24:04.27, start: -0.001000, bitrate: 1225 kb/s
  Stream #0:0: Video: hevc (Main 10), yuv420p10le(tv, bt709, progressive), 1920x1080 [SAR 1:1 DAR 16:9], 23.98 fps, 23.98 tbr, 1k tbn (default)
      Metadata:
        HANDLER_NAME    : VideoHandler
        VENDOR_ID       : [0][0][0][0]
        ENCODER         : Lavc61.19.100 libx265
        BPS             : 1028071
        DURATION        : 00:24:04.150708333
        NUMBER_OF_FRAMES: 34625
        NUMBER_OF_BYTES : 185586261
        _STATISTICS_WRITING_APP: mkvpropedit v66.0.0 ('Josie') 64-bit
        _STATISTICS_WRITING_DATE_UTC: 2025-05-28 16:52:10
        _STATISTICS_TAGS: BPS DURATION NUMBER_OF_FRAMES NUMBER_OF_BYTES
  Stream #0:1(eng): Audio: aac (LC), 48000 Hz, stereo, fltp (default)
      Metadata:
        HANDLER_NAME    : SoundHandler
        VENDOR_ID       : [0][0][0][0]
        ENCODER         : Lavc61.19.100 aac
        BPS             : 193831
        DURATION        : 00:24:04.227000000
        NUMBER_OF_FRAMES: 67699
        NUMBER_OF_BYTES : 34992142
        _STATISTICS_WRITING_APP: mkvpropedit v66.0.0 ('Josie') 64-bit
        _STATISTICS_WRITING_DATE_UTC: 2025-05-28 16:52:10
        _STATISTICS_TAGS: BPS DURATION NUMBER_OF_FRAMES NUMBER_OF_BYTES
Input #1, mov,mp4,m4a,3gp,3g2,mj2, from 'G:\Аниме\Онгоинги\!_36_Осень_2024\JamClub\Механические руки\JamClub_Mecha_ude_TV_12_1080p.mp4':
  Metadata:
    major_brand     : isom
    minor_version   : 512
    compatible_brands: isomiso2avc1mp41
    encoder         : Lavf60.16.100
  Duration: 00:24:04.25, start: 0.000000, bitrate: 4063 kb/s
  Stream #1:0[0x1](und): Video: h264 (High) (avc1 / 0x31637661), yuv420p(progressive), 1920x1080 [SAR 1:1 DAR 16:9], 3865 kb/s, 23.98 fps, 23.98 tbr, 90k tbn (default)
      Metadata:
        handler_name    : VideoHandler
        vendor_id       : [0][0][0][0]
  Stream #1:1[0x2](eng): Audio: aac (LC) (mp4a / 0x6134706D), 48000 Hz, stereo, fltp, 191 kb/s (default)
      Metadata:
        handler_name    : SoundHandler
        vendor_id       : [0][0][0][0]
Stream mapping:
  Stream #0:0 (hevc) -> settb:default
  Stream #1:0 (h264) -> settb:default
  psnr:default -> Stream #0:0 (wrapped_avframe)
  Stream #0:1 -> #0:1 (aac (native) -> pcm_s16le (native))
Output #0, null, to 'pipe:':
  Metadata:
    COMPATIBLE_BRANDS: isomiso2avc1mp41
    MAJOR_BRAND     : isom
    MINOR_VERSION   : 512
    encoder         : Lavf61.7.100
  Stream #0:0: Video: wrapped_avframe, yuv420p10le(tv, bt709, progressive), 1920x1080 [SAR 1:1 DAR 16:9], q=2-31, 200 kb/s, 23.98 fps, 23.98 tbn
      Metadata:
        encoder         : Lavc61.19.100 wrapped_avframe
  Stream #0:1(eng): Audio: pcm_s16le, 48000 Hz, stereo, s16, 1536 kb/s (default)
      Metadata:
        HANDLER_NAME    : SoundHandler
        VENDOR_ID       : [0][0][0][0]
        _STATISTICS_TAGS: BPS DURATION NUMBER_OF_FRAMES NUMBER_OF_BYTES
        BPS             : 193831
        DURATION        : 00:24:04.227000000
        NUMBER_OF_FRAMES: 67699
        NUMBER_OF_BYTES : 34992142
        _STATISTICS_WRITING_APP: mkvpropedit v66.0.0 ('Josie') 64-bit
        _STATISTICS_WRITING_DATE_UTC: 2025-05-28 16:52:10
        encoder         : Lavc61.19.100 pcm_s16le
frame=  112 fps=0.0 q=-0.0 size=N/A time=00:00:04.67 bitrate=N/A speed=8.94x    frame=  269 fps=262 q=-0.0 size=N/A time=00:00:11.21 bitrate=N/A speed=10.9x    frame=  464 fps=299 q=-0.0 size=N/A time=00:00:19.35 bitrate=N/A speed=12.5x    frame=  722 fps=351 q=-0.0 size=N/A time=00:00:30.11 bitrate=N/A speed=14.6x    frame=  994 fps=385 q=-0.0 size=N/A time=00:00:41.45 bitrate=N/A speed=16.1x    frame= 1266 fps=408 q=-0.0 size=N/A time=00:00:52.80 bitrate=N/A speed=  17x    frame= 1491 fps=413 q=-0.0 size=N/A time=00:01:02.18 bitrate=N/A speed=17.2x    frame= 1752 fps=424 q=-0.0 size=N/A time=00:01:13.07 bitrate=N/A speed=17.7x    frame= 2007 fps=432 q=-0.0 size=N/A time=00:01:23.70 bitrate=N/A speed=  18x    frame= 2280 fps=442 q=-0.0 size=N/A time=00:01:35.09 bitrate=N/A speed=18.4x    frame= 2546 fps=448 q=-0.0 size=N/A time=00:01:46.18 bitrate=N/A speed=18.7x    frame= 2816 fps=455 q=-0.0 size=N/A time=00:01:57.45 bitrate=N/A speed=  19x    frame= 3081 fps=460 q=-0.0 size=N/A time=00:02:08.50 bitrate=N/A speed=19.2x    frame= 3363 fps=466 q=-0.0 size=N/A time=00:02:20.26 bitrate=N/A speed=19.4x    frame= 3611 fps=467 q=-0.0 size=N/A time=00:02:30.60 bitrate=N/A speed=19.5x    frame= 3851 fps=467 q=-0.0 size=N/A time=00:02:40.61 bitrate=N/A speed=19.5x    frame= 4090 fps=466 q=-0.0 size=N/A time=00:02:50.58 bitrate=N/A speed=19.4x    frame= 4345 fps=468 q=-0.0 size=N/A time=00:03:01.22 bitrate=N/A speed=19.5x    frame= 4611 fps=470 q=-0.0 size=N/A time=00:03:12.31 bitrate=N/A speed=19.6x    frame= 4851 fps=470 q=-0.0 size=N/A time=00:03:22.32 bitrate=N/A speed=19.6x    frame= 5065 fps=467 q=-0.0 size=N/A time=00:03:31.25 bitrate=N/A speed=19.5x    frame= 5304 fps=468 q=-0.0 size=N/A time=00:03:41.22 bitrate=N/A speed=19.5x    frame= 5534 fps=466 q=-0.0 size=N/A time=00:03:50.81 bitrate=N/A speed=19.5x    frame= 5746 fps=464 q=-0.0 size=N/A time=00:03:59.65 bitrate=N/A speed=19.4x    frame= 6001 fps=465 q=-0.0 size=N/A time=00:04:10.29 bitrate=N/A speed=19.4x    frame= 6276 fps=468 q=-0.0 size=N/A time=00:04:21.76 bitrate=N/A speed=19.5x    frame= 6567 fps=471 q=-0.0 size=N/A time=00:04:33.89 bitrate=N/A speed=19.7x    frame= 6761 fps=468 q=-0.0 size=N/A time=00:04:41.99 bitrate=N/A speed=19.5x    frame= 6964 fps=466 q=-0.0 size=N/A time=00:04:50.45 bitrate=N/A speed=19.4x    frame= 7181 fps=464 q=-0.0 size=N/A time=00:04:59.50 bitrate=N/A speed=19.4x    frame= 7390 fps=462 q=-0.0 size=N/A time=00:05:08.22 bitrate=N/A speed=19.3x    frame= 7605 fps=461 q=-0.0 size=N/A time=00:05:17.19 bitrate=N/A speed=19.2x    frame= 7828 fps=460 q=-0.0 size=N/A time=00:05:26.49 bitrate=N/A speed=19.2x    frame= 8047 fps=459 q=-0.0 size=N/A time=00:05:35.62 bitrate=N/A speed=19.1x    frame= 8259 fps=458 q=-0.0 size=N/A time=00:05:44.46 bitrate=N/A speed=19.1x    frame= 8490 fps=457 q=-0.0 size=N/A time=00:05:54.10 bitrate=N/A speed=19.1x    frame= 8691 fps=456 q=-0.0 size=N/A time=00:06:02.48 bitrate=N/A speed=  19x    frame= 8962 fps=457 q=-0.0 size=N/A time=00:06:13.79 bitrate=N/A speed=19.1x    frame= 9228 fps=459 q=-0.0 size=N/A time=00:06:24.88 bitrate=N/A speed=19.1x    frame= 9440 fps=458 q=-0.0 size=N/A time=00:06:33.72 bitrate=N/A speed=19.1x    frame= 9676 fps=458 q=-0.0 size=N/A time=00:06:43.56 bitrate=N/A speed=19.1x    frame= 9926 fps=458 q=-0.0 size=N/A time=00:06:53.99 bitrate=N/A speed=19.1x    frame=10197 fps=460 q=-0.0 size=N/A time=00:07:05.29 bitrate=N/A speed=19.2x    frame=10456 fps=461 q=-0.0 size=N/A time=00:07:16.10 bitrate=N/A speed=19.2x    frame=10732 fps=463 q=-0.0 size=N/A time=00:07:27.61 bitrate=N/A speed=19.3x    frame=11002 fps=464 q=-0.0 size=N/A time=00:07:38.87 bitrate=N/A speed=19.3x    frame=11277 fps=465 q=-0.0 size=N/A time=00:07:50.34 bitrate=N/A speed=19.4x    frame=11538 fps=466 q=-0.0 size=N/A time=00:08:01.23 bitrate=N/A speed=19.4x    frame=11795 fps=467 q=-0.0 size=N/A time=00:08:11.94 bitrate=N/A speed=19.5x    frame=12080 fps=469 q=-0.0 size=N/A time=00:08:23.83 bitrate=N/A speed=19.5x    frame=12359 fps=470 q=-0.0 size=N/A time=00:08:35.47 bitrate=N/A speed=19.6x    frame=12620 fps=471 q=-0.0 size=N/A time=00:08:46.35 bitrate=N/A speed=19.6x    frame=12908 fps=472 q=-0.0 size=N/A time=00:08:58.37 bitrate=N/A speed=19.7x    frame=13167 fps=473 q=-0.0 size=N/A time=00:09:09.17 bitrate=N/A speed=19.7x    frame=13389 fps=472 q=-0.0 size=N/A time=00:09:18.43 bitrate=N/A speed=19.7x    frame=13642 fps=472 q=-0.0 size=N/A time=00:09:28.98 bitrate=N/A speed=19.7x    frame=13882 fps=472 q=-0.0 size=N/A time=00:09:38.99 bitrate=N/A speed=19.7x    frame=14104 fps=472 q=-0.0 size=N/A time=00:09:48.25 bitrate=N/A speed=19.7x    frame=14307 fps=470 q=-0.0 size=N/A time=00:09:56.72 bitrate=N/A speed=19.6x    frame=14545 fps=470 q=-0.0 size=N/A time=00:10:06.64 bitrate=N/A speed=19.6x    frame=14794 fps=470 q=-0.0 size=N/A time=00:10:17.03 bitrate=N/A speed=19.6x    frame=15066 fps=471 q=-0.0 size=N/A time=00:10:28.37 bitrate=N/A speed=19.6x    frame=15282 fps=470 q=-0.0 size=N/A time=00:10:37.38 bitrate=N/A speed=19.6x    frame=15472 fps=469 q=-0.0 size=N/A time=00:10:45.31 bitrate=N/A speed=19.5x    frame=15729 fps=469 q=-0.0 size=N/A time=00:10:56.03 bitrate=N/A speed=19.6x    frame=15933 fps=468 q=-0.0 size=N/A time=00:11:04.53 bitrate=N/A speed=19.5x    frame=16161 fps=468 q=-0.0 size=N/A time=00:11:14.04 bitrate=N/A speed=19.5x    frame=16378 fps=467 q=-0.0 size=N/A time=00:11:23.09 bitrate=N/A speed=19.5x    frame=16589 fps=466 q=-0.0 size=N/A time=00:11:31.89 bitrate=N/A speed=19.4x    frame=16802 fps=465 q=-0.0 size=N/A time=00:11:40.78 bitrate=N/A speed=19.4x    frame=17020 fps=465 q=-0.0 size=N/A time=00:11:49.87 bitrate=N/A speed=19.4x    frame=17238 fps=464 q=-0.0 size=N/A time=00:11:58.96 bitrate=N/A speed=19.4x    frame=17440 fps=463 q=-0.0 size=N/A time=00:12:07.39 bitrate=N/A speed=19.3x    frame=17634 fps=462 q=-0.0 size=N/A time=00:12:15.48 bitrate=N/A speed=19.3x    frame=17850 fps=461 q=-0.0 size=N/A time=00:12:24.49 bitrate=N/A speed=19.2x    frame=18061 fps=461 q=-0.0 size=N/A time=00:12:33.29 bitrate=N/A speed=19.2x    frame=18323 fps=461 q=-0.0 size=N/A time=00:12:44.22 bitrate=N/A speed=19.2x    frame=18586 fps=462 q=-0.0 size=N/A time=00:12:55.19 bitrate=N/A speed=19.3x    frame=18841 fps=462 q=-0.0 size=N/A time=00:13:05.82 bitrate=N/A speed=19.3x    frame=19079 fps=462 q=-0.0 size=N/A time=00:13:15.75 bitrate=N/A speed=19.3x    frame=19352 fps=463 q=-0.0 size=N/A time=00:13:27.18 bitrate=N/A speed=19.3x    frame=19605 fps=463 q=-0.0 size=N/A time=00:13:37.69 bitrate=N/A speed=19.3x    frame=19877 fps=464 q=-0.0 size=N/A time=00:13:49.03 bitrate=N/A speed=19.4x    frame=20133 fps=465 q=-0.0 size=N/A time=00:13:59.71 bitrate=N/A speed=19.4x    frame=20382 fps=465 q=-0.0 size=N/A time=00:14:10.09 bitrate=N/A speed=19.4x    frame=20570 fps=464 q=-0.0 size=N/A time=00:14:17.94 bitrate=N/A speed=19.3x    frame=20766 fps=463 q=-0.0 size=N/A time=00:14:26.11 bitrate=N/A speed=19.3x    frame=20930 fps=461 q=-0.0 size=N/A time=00:14:32.95 bitrate=N/A speed=19.2x    frame=21096 fps=460 q=-0.0 size=N/A time=00:14:39.87 bitrate=N/A speed=19.2x    frame=21278 fps=458 q=-0.0 size=N/A time=00:14:47.46 bitrate=N/A speed=19.1x    frame=21503 fps=458 q=-0.0 size=N/A time=00:14:56.85 bitrate=N/A speed=19.1x    frame=21790 fps=459 q=-0.0 size=N/A time=00:15:08.82 bitrate=N/A speed=19.1x    frame=22036 fps=459 q=-0.0 size=N/A time=00:15:19.08 bitrate=N/A speed=19.2x    frame=22321 fps=460 q=-0.0 size=N/A time=00:15:30.97 bitrate=N/A speed=19.2x    frame=22572 fps=461 q=-0.0 size=N/A time=00:15:41.44 bitrate=N/A speed=19.2x    frame=22820 fps=461 q=-0.0 size=N/A time=00:15:51.78 bitrate=N/A speed=19.2x    frame=23071 fps=461 q=-0.0 size=N/A time=00:16:02.25 bitrate=N/A speed=19.2x    frame=23351 fps=462 q=-0.0 size=N/A time=00:16:13.93 bitrate=N/A speed=19.3x    frame=23609 fps=462 q=-0.0 size=N/A time=00:16:24.69 bitrate=N/A speed=19.3x    frame=23852 fps=462 q=-0.0 size=N/A time=00:16:34.82 bitrate=N/A speed=19.3x    frame=24097 fps=463 q=-0.0 size=N/A time=00:16:45.04 bitrate=N/A speed=19.3x    frame=24369 fps=463 q=-0.0 size=N/A time=00:16:56.39 bitrate=N/A speed=19.3x    frame=24627 fps=464 q=-0.0 size=N/A time=00:17:07.15 bitrate=N/A speed=19.3x    frame=24905 fps=464 q=-0.0 size=N/A time=00:17:18.74 bitrate=N/A speed=19.4x    frame=25160 fps=465 q=-0.0 size=N/A time=00:17:29.38 bitrate=N/A speed=19.4x    frame=25386 fps=464 q=-0.0 size=N/A time=00:17:38.80 bitrate=N/A speed=19.4x    frame=25630 fps=464 q=-0.0 size=N/A time=00:17:48.98 bitrate=N/A speed=19.4x    frame=25855 fps=464 q=-0.0 size=N/A time=00:17:58.36 bitrate=N/A speed=19.4x    frame=26092 fps=464 q=-0.0 size=N/A time=00:18:08.25 bitrate=N/A speed=19.4x    frame=26359 fps=465 q=-0.0 size=N/A time=00:18:19.38 bitrate=N/A speed=19.4x    frame=26638 fps=465 q=-0.0 size=N/A time=00:18:31.02 bitrate=N/A speed=19.4x    frame=26906 fps=466 q=-0.0 size=N/A time=00:18:42.20 bitrate=N/A speed=19.4x    frame=27188 fps=466 q=-0.0 size=N/A time=00:18:53.96 bitrate=N/A speed=19.5x    frame=27471 fps=467 q=-0.0 size=N/A time=00:19:05.76 bitrate=N/A speed=19.5x    frame=27733 fps=468 q=-0.0 size=N/A time=00:19:16.69 bitrate=N/A speed=19.5x    frame=27988 fps=468 q=-0.0 size=N/A time=00:19:27.33 bitrate=N/A speed=19.5x    frame=28245 fps=468 q=-0.0 size=N/A time=00:19:38.05 bitrate=N/A speed=19.5x    frame=28493 fps=468 q=-0.0 size=N/A time=00:19:48.39 bitrate=N/A speed=19.5x    frame=28741 fps=468 q=-0.0 size=N/A time=00:19:58.73 bitrate=N/A speed=19.5x    frame=28997 fps=468 q=-0.0 size=N/A time=00:20:09.41 bitrate=N/A speed=19.5x    frame=29215 fps=468 q=-0.0 size=N/A time=00:20:18.50 bitrate=N/A speed=19.5x    frame=29467 fps=468 q=-0.0 size=N/A time=00:20:29.01 bitrate=N/A speed=19.5x    frame=29731 fps=469 q=-0.0 size=N/A time=00:20:40.03 bitrate=N/A speed=19.5x    frame=30005 fps=469 q=-0.0 size=N/A time=00:20:51.45 bitrate=N/A speed=19.6x    frame=30237 fps=469 q=-0.0 size=N/A time=00:21:01.13 bitrate=N/A speed=19.6x    frame=30448 fps=469 q=-0.0 size=N/A time=00:21:09.93 bitrate=N/A speed=19.5x    frame=30718 fps=469 q=-0.0 size=N/A time=00:21:21.19 bitrate=N/A speed=19.6x    frame=30936 fps=469 q=-0.0 size=N/A time=00:21:30.28 bitrate=N/A speed=19.5x    frame=31192 fps=469 q=-0.0 size=N/A time=00:21:40.96 bitrate=N/A speed=19.6x    frame=31425 fps=469 q=-0.0 size=N/A time=00:21:50.68 bitrate=N/A speed=19.5x    frame=31690 fps=469 q=-0.0 size=N/A time=00:22:01.73 bitrate=N/A speed=19.6x    frame=31921 fps=469 q=-0.0 size=N/A time=00:22:11.37 bitrate=N/A speed=19.6x    frame=32158 fps=469 q=-0.0 size=N/A time=00:22:21.25 bitrate=N/A speed=19.6x    frame=32367 fps=468 q=-0.0 size=N/A time=00:22:29.97 bitrate=N/A speed=19.5x    frame=32576 fps=468 q=-0.0 size=N/A time=00:22:38.69 bitrate=N/A speed=19.5x    frame=32761 fps=467 q=-0.0 size=N/A time=00:22:46.40 bitrate=N/A speed=19.5x    frame=32958 fps=466 q=-0.0 size=N/A time=00:22:54.62 bitrate=N/A speed=19.5x    frame=33156 fps=466 q=-0.0 size=N/A time=00:23:02.88 bitrate=N/A speed=19.4x    frame=33357 fps=465 q=-0.0 size=N/A time=00:23:11.26 bitrate=N/A speed=19.4x    frame=33558 fps=465 q=-0.0 size=N/A time=00:23:19.64 bitrate=N/A speed=19.4x    frame=33758 fps=464 q=-0.0 size=N/A time=00:23:27.98 bitrate=N/A speed=19.4x    frame=33971 fps=464 q=-0.0 size=N/A time=00:23:36.87 bitrate=N/A speed=19.3x    frame=34223 fps=464 q=-0.0 size=N/A time=00:23:47.38 bitrate=N/A speed=19.4x    frame=34475 fps=464 q=-0.0 size=N/A time=00:23:57.89 bitrate=N/A speed=19.4x    [Parsed_psnr_10 @ 0000027e6c9f2a40] PSNR y:48.801343 u:50.052561 v:49.713544 average:49.131925 min:33.746104 max:inf
[out#0/null @ 0000027e662c0ec0] video:14878KiB audio:270796KiB subtitle:0KiB other streams:0KiB global headers:0KiB muxing overhead: unknown
frame=34625 fps=464 q=-0.0 Lsize=N/A time=00:24:04.15 bitrate=N/A speed=19.4x    
